<mxfile host="app.diagrams.net" modified="2022-12-06T06:00:52.617Z" agent="5.0 (Windows NT 10.0; Win64; x64) AppleWebKit/537.36 (KHTML, like Gecko) Chrome/105.0.0.0 Safari/537.36" version="20.6.0" etag="CJiQjgBmlbOMHShp-8Bg" type="github">
  <diagram id="vhUm9kG4OXxF_BDjIVZA" name="第 1 页">
    <mxGraphModel dx="1422" dy="698" grid="1" gridSize="10" guides="1" tooltips="1" connect="1" arrows="1" fold="1" page="1" pageScale="1" pageWidth="827" pageHeight="1169" math="0" shadow="0">
      <root>
        <mxCell id="0" />
        <mxCell id="1" parent="0" />
        <mxCell id="B8WmRNl6atAswD7czt82-3" style="edgeStyle=orthogonalEdgeStyle;rounded=0;orthogonalLoop=1;jettySize=auto;html=1;exitX=0;exitY=0.5;exitDx=0;exitDy=0;exitPerimeter=0;entryX=0;entryY=0.34;entryDx=0;entryDy=0;entryPerimeter=0;" edge="1" parent="1" source="B8WmRNl6atAswD7czt82-1" target="B8WmRNl6atAswD7czt82-2">
          <mxGeometry relative="1" as="geometry" />
        </mxCell>
        <mxCell id="B8WmRNl6atAswD7czt82-1" value="" style="shape=image;verticalLabelPosition=bottom;labelBackgroundColor=default;verticalAlign=top;aspect=fixed;imageAspect=0;image=data:image/png,iVBORw0KGgoAAAANSUhEUgAAAUEAAADGCAIAAADDrqWyAAAYW0lEQVR4nO1dPa8cx7G9tpwIVmIQzJlv7Jy5w4cNHCl5mQL9BF34D5CGBdOJ/QM2ERwqE+BAhgKJBPc5kk0IEECBMkAShgmSIrlvd2enpz67ez53evYcNC7ufFXX9NTpqu6Zrr3aAQBQMq7OrQAAAL0ADgNA2QCHAaBsgMMAUDbAYQAoG+AwAJQNcBgAygY4DABlAxwGgLKR4PDVnW9QUFDOW8BhFJSyywAc3l3fRkFBmb6AwygoZRdwGAWl7AIOo6CUXcBhFJSyCziMglJ2AYdRUMou4PAA5f07X6Vf313f/tfv/meI6n59ffPqarXqLGGzurq6eWt77kZDGaqAw31LDoEHbaKeHD5eDg4vqIDDw7RgJw6v1ldX63XbGvv64XFKt3spsdLZFXB4gBb83y9/FEXvBIeXUunsCjg8QAuaHP7t336IcHh7+5dXBKvbv47Vsr5JTr0lOfzRrVU4WgfJetAb9qhDByaIyz2xZnHu5djX1NdvuBqb6pIgltzg6vYq5wbbNeCiCzg8QAuO64eP9h1O21TmHEz8cPSX1x9VR8lYl+0/0aASwjh8FN4Q4KNb1+uoWLfIe9nevmleLvWv2dj6BvMbcOkFHB6mBUcbDx/O4U6GxtKH/5mEA1criz8cChceeXJyhoTDXlgeERvT072XAw9J7cQt97jBzAZcfgGHB2jBnJ0dOUz8Z12IidMgk6A6/8BbwtXAk4bDhvDbSbFOMe5lw6ToHqTvDYLDVQGHB2hBc+ePv/tN6rRhOOxKCEe5F83kcEtuiHupxti1vxV+uCWHfU3A4UMBh/uWn4/qh41Q80iPU6ipj7JyIMxqdXDIJGAmLPIuT4j19GzuhY/GnUi+/w2Cw4cCDg/WiO0/8MiiyjEi5V6UTPmICaGD46Lj2yOXVnxISVkkL1/fbOLwiNjkvdB5uFM87HG4zw126GsWWMDhs5b6nUrcEOnAcr2WE1HsLYucPT76NOclk9DBnC52xKbvpbl8f20klu55g3kNuOwCDqPMrczzI5b5FnAYZWaly4zaRRdwGOXMZR8qk0jYCP5R4gUcnkkhHzy2GoUuQkn2JhlRdMsCDqOglF3AYRSUsgs4jIJSdhmMwygoKGcsQ/hhAADOAXAYAMoGOAwAZQMcBoCyAQ4DQNkAhwGgbIDDAFA25sTh7fXxs9nV9dY6uqm+1V1vBqgJAJaDUThM93zz5EV4Db3/Pxx97+79Dz59wC4Eh4HZ42CGjoWeC8NzeP//h59/F/bs/3n68s2uJnM47ae37569fNPCgYPDwPlx9DPdOXy8nJvwYZdj1OKQ130Mz+FHz19VO8VpTzljX7991y4CB4eBknCwV2GsB05SEp4CT8uo7UNSQIWxxsPmnk++fBz+v3Hv4Z2vn1h6N0qGGzncCjgMlATNYbYn0FGfFzlk7ZqEw5UH/viL7/U5bCfn8MZYbw4OA2cGCWhPgTHzNLtwgCQ1CAZtRcIWKyOHjNB7dA5Xw+DPvn1268//l1hvQTksY4lI2AEA00FyuIkbj06nMU9JQI+rLTls7Bydw2I6mu6PcfjkhUnHhVgamAEkh4mF8gkrwTV7KKvPSx9S/nx4Du/DY/oySXtd/c8J4DAwe+hYOhxKcti03S4c5nun+8ajHYfr2LkmMWJpYBYAh7NjaTkvgDktYBbow+FiYun4acIJR7/TYhN+9QY4DJwTrThMuTbUnJZ26HPywwAwe2RzuHk7Ovi7JSFmOg6b75b2O5MXAsAiEGFrNqxh9XQcBoALhzsmzobpy8FhAJgMxpqHfEy35gEAgCkBDgNA2QCHAaBsgMMAUDYG4zAKCsoZywAcjp8DAMBIAIcBoGyAwwBQNsBhACgb4DAAlA1wGADKBjgMAGUDHC4X/ZfBAEvAzDnca53Hbpxfx4nK7KrwXqhMZMqgK8ysaRRtLwxDLPwdEcvmcM9fx+kgs7PCKpELTxAhK/TSjUnGj6TtZWE4DtMGZ/20fETkYDg06drD9/9w+EHDG396SE/42d374YRf3Xu437M/LS65QCPro3CzwFvnU+PPLjxh9UhFovIRtb0gDMVhOvhhq/mPT41vsoSudGOKHAAVgelnnJHNVN3FGdkACmvXyTlMjjPGVq65VdRRXPOeBwNxOCYmkaaL+eLxc/EIru74bz6kq6QhxvpaGhmNIemPZGg/FVLNs0NWjOKIjSkoExb6CmcgCDhcZwZMxO9uZEIlUr2XNnFQbeeJiA3wp8t/TKVqT+UEDQOzfldp10q4kxNPaqv7VXZvk/zekv5///fWX/6xL2kO81BQ/rSDuhnijuzfzGBHRMSyvb7eRMU60DJdhVsg8jO0MUWa2k62JGWMo+384NvA9nptPlzj9h0Lqc5k1zXRba7wmBeml+p4me+Z4veWdKhs+uG/P/7vvnz1wwsiSXemtFNSVt7cG7tLOW/ghChUSsaPvJpaxhVuhaCGO1uljro/G0DdyDjazhCuDTAQBqipg+hF7u8qtRBuW5UYAyWf0gQ54s1Yuiq/+P39XWQ87PxIeuhOTdtuDlr9WCxEITV4Yk1EZeZUYz5K2pWop6T6XvXuiUP8TFVrbYuEZwM72Vy6fw/XZ/2ciuZUWrgTZ8mfRbCulHczwW+1hP//+s/ngsPbf7/cb7551+z5z+u34obiHHbtLRzVgUcGh1uZ8TisYM9Y+RTj1QN/qrGtC+GwYwMVxUj3OCSHs4UbHHYGP4nx8Fl/bykD9sSE2yz64mriQQxC3EjSqzRfy7jCrXBSPLwYPgly5HXxw0NqO1MYNsBv2hlnWacqsWGzEdJCuBkamE0vzzSuHDuW7gPjPRm506rjau57vy0nJFYr3tupN20sBqJBuivWVNKc3+g1S8Qmp5PCuvjhIbWdK7QNUK5wz+cMPA0LiXI4VzgXEpvh0lYrB9Zjz2n1BHv3sbHelVneprnUfcFgSM8Ta2koSOIrnAsxmGsUrMVzmZ388HDazheGDTQPd78/Fu42AoSFRMbDLYTTvtWehREuXdvpzhxZzY7DFw1niLRTPlPFU/zUVmMDYCJEfW8mrKkxcBgAJkLqrWUaZv8MDgPAZOg1ePHm3MBhD9aQEzEqMD+AwwBQNsBhACgb4DAAlA1wGADKBjgMAGUDHAaAsgEOA0DZKInDrVcYjY+oSt1e6Cc+hTa/om0+30mnIbGuctV3F9bYS2GND5Vj697zbm5emKERjsJhuuebJy/CauH9/+Hoe3fvf/Dpgzbkb2OeEyGuUmcOW+ufpWCxOut4ksGMePUxFpNK6m5ltV6LCpimdEltgpqRzEMdkhJNiJ5G6KzhzmuK6b7T2v//4eff0fw7T1++2dVkDqf99Pbds5dvRnDgQ3xZPgx6c9j7VIw/29OWtK6sdtjqzNXkcspTolZdPdc0tRxjs14Ch/NhtL+1Mtjpae1D9gfXw3P40fNXO54Zr8JTztjXb9+NE4EvhcMbloiNiVM5P065AhIOsEWUbnj6KkGB2amc6FkpuM7lcFLfsqHtkO0JdNTnRQ6Z1j3WeNjc88mXj8P/N+49vPP1E3HOKVpwVk+aiReosxCWIXPCKSHV/zI7aTL1lVbY0qhr5tcjh0MG2tMz405W5N4iuXbIqlaaS8BTwu3vNuvDSvr6CQgJ0g+Tm/aILp9luX6YPPFTp0rsRS0qpkbkBCgRn2MdMppnCg5XHvjjL77X54idp+cv6KTNtT6VLpq+thdspzgsen12enrwo1XKSsMRg3jUDSUsBlQNRPJlpcij1XcV3NJ+hPRKhnlStRe+fFlyWFiTn6nDa+uWHDZ2js7hahj82bfPvGulfnoEYORGiISpbTkczXOSWvFJpDmpXTpxmMwdiawygUoh4g2xa5ORK7vWPA7LLWM8TPIXCf1FX5IIosXpLZtuCkgjNAc79Yki+UdOsq70IdVJjs7hMB1dgY6KxSzXzstgolkSY0dLDptzDHleLKWSp2U8WFfz0vqshkQVZ5lfOGyICSgnxjMRnKnYdZz9upZxsooAqv7luqL0PiKvYm09ETf7mNlDxJEkOewMW9pzmO8dnsP78Ji+TAr/h9OqWWv6tompd24Ot7KrThxOilTEFvNbcrh7SuXUTHhVeeHWclbMVD/ph6u5azImVuZIXf9RZAaHSw25L4LDOXj0/NUfH/yo9+s40KGcQXZ6hduwcQ7HxNqIqtQmqmVXiQk6pZHB4abCZgxr/DiToX46lg5ZvozpKmvKJUwTRs4udmK6D4cLi6W7Qc4D6VkiFiKywaI58yVlcIfmDGG5qUXNSY2uVRjc3w/r0Dvqh0+O+DAkVRPalvoJDh8nC92hMb1TouM2I5bOb4BZoRWHpR0OMael23F+HOa9uDtnvOO2Y9kU5/tV40t8Du+Eh2j5bolr1DmWzoHlh6UjJpzOmv/jCO63aZFGYFxeHw7Pm8L5HFZ26NxYSw4b/nyOHJ7vA5wCGTZs+OEQQLgheGbfEKhaGwsxJFME78ICy2OdqrxfV+CyEO0xM2H1hOAwAEyE1JvKNMwOHhwGgMnQbXh1gscOcDgHVhA5Rz2BS8S8OAwAQFuAwwBQNsBhACgb4DAAlA1wGADKBjgMAGUDHAa6otDVg4sDOJyLFu+u6+8dh32FLFbhux9Jxi50sVHZQxzlk2uQS2X1EF9CngfgcCbSeXlqjPWhSne3l5VTSC+WMq+IalGyZx6Ow85ScnslsPPFkHVo0u+03v/DIXH0jT89pCf87O79cMKv7j3c79mfpoSdpTcctNL+H8UqyM/EErq2Xfl0orC36JebEvxwAvL5hwYTwtVKWr5s1Txk29bwHK4ITBN3RDZV3eVzeLTvRbO1bLvyqZX3hB9uISZwTgm31i1GljQyXzz+uiXB1R3PrRWp0s7oyXbTNf9WWlkWgWxkSGPlsXIqNaAXjrJ1ybJ+t44+X7yzvBpDeUGSPsD14E27nNMP26lSjAAhZSdWqFqxQz9TdddR4ZmLhHW4He4kcqi+UjTxKBwW/+//3vrLP/YlzuGgL7/ZNdVepJ1RK7BFChAvrYIRuyRNT5sL08XL3yAS8uQPqzmIEbGr9SPNSXxHBIWV/i0UOZsfFm1LzD3fTmS+lTqrsU7xQjrhXOG5yTp0UBz2RA45VYzlh0XwHA6FE/7++L/78tUPL7iwKJ3kcvRYkg+d0VHFMtEAxayccti2JaGIEVh3Wn52WFR/fcqNEzLQnjJm0E3/cvvwsRlOaXt2sZE0Cw+jGDWWZo/NbcmYnUQv8p5pG+FZSbMi1ho35J3h6ieKpavyi9/f37UfD3PDIs2nZg4Mh0TS0fjm1onDXhIWNSEhJdsDZivQp8cCe7nG9U59C/RRuxw+pskpaTwsxo1eaqY2dkIu9xPrZAmPtXMOh8PQOfqOQD3qEWPpv/7zueDw9t8v95tv3jV7/vP6bfRmSYKoneoCW3LYN645cDheNXG5JxFElUBm0SDRQaxwOdG+ztV36/7k2mgITaoiqa52slMXiROzhedzuPt4eBIO9wNXkGtP7041nz3f4Z4eqTRyUlsODxZL1xcqunL+8bbiW36VTIbRShuW/faUY0v2Ic254zpiOvnkzEG0tBMmNmw2QloIz46lzTdQTnxhxBtjx9L9wJuF0pBPvjiUVTOPdcOJGa/jANPpKtKa5XNY1auGUPkww2YRYIs5Ws30mOAkh8OJzIxO2SsJv0em8bGFVyunVVN2op9I421dDrcxwpw5LXGxEbi7oZx+lnPjcDPyaMwmbMfCGHpp1cwm05zgkFfq6tWew1KtHq+Om1GxGQfvGIvC0Or43yAcFq7CGiIQKR1vMguiu641yrYTYShS/0YgZ26OcOUkTeFSZ3XQP2S4+vlxeDB0DlpnCk6cxgyN/t3ruQSIibYcD5snTj00niVGDkOs3nO5HF4ahcdDi/EwkIQ7Jh4C5qNYDoe5/RnhFgBMgrG8hzdtsxwO78TAs2MjWp85oC8AZoxFcRgALhDgMACUDXAYAMoGOAwAZQMcBoCyAQ4DQNkAhwGgbIDDiwL5FM/7btJ+b5698jf3Awa27GLUb5fGx/jLOHoBHF4Uui/CP3IuxbP0x9dseUB/reaB4TgsVy66nxGRg7GFrEeMwuGLzk17JsjvyxL3Y32OlnDaXitZnlksTsyPB2aJoeyDhiO6hfgmW3tIN6b4XvrSc9OeFdl3krGOQeb+cRe3Z6UNkJJLCq0Hso+YmMTKVuaLx1+3ZObTCociVYpAjXVEqu+u7nnC3LSnliXne6K5kvSSJteK5Yos9VqiWa6eseQwF2LdMF9xG7kHeS81mUdhsL1qW6REyDEhK4qVzzHz0eelrZXaJnLxGOOSEfNp7Qhpy89Nu+XPmtlvXElpSHQ4lKVeLog1JbI8xRhuE7BBY+PxDs/K0DCi8xUkJkyYedpaealuO75HyxnLD4vgORwKJ5SWm1byyp2f9fM8CJ2Fo4imW8rBdqT8tfr2Uh2MSAXU1M/TYAwL1mS5T0d7VO+iDo9eCbdbrWqtyMyVztQzdj4tM5a+Kj43bTT/TkRJ0RMLU5AJh0z1eJ2OE9xS9vLa6536Njc5+Wt13QmHXdN8U63orqslKX1GYbGI+WkDdTUhcnmHR58IhoKoK6VrzA/rxzhiLL2s3LQRDkeVzOZwT7MeL38toaSnpOoL1jVf14cE9GI86E6Q9URoRhVkdTWhnbpInJgt3B/QyBoT4+FJONwPXEGuvXy5xtrIntRwT49UasPncFzJHA4PZ9UmXRvz4STWW9FGiJzA+4sqYm74qjqV0V4ENJNP9kRDWxNiYsNm7qNXHFahgdkGRk8rrxw7lu4Hfu/0Rnm35VBWTS820049c9PGOewrmcXhuHotYIbNIsAWc2ya6QnZBhqpp0S1G5UKs1Xg3hnHJi4hbW1y3odZhhxY8yvnxuFmeCGHiqvz5qaNjYdjSuZxOKFeNppRsZBM/VI9SK3ZlpO/ViqooAx24nnpppIS0tbabWkPbHQELgTPj8ODYbTJkxmDE7GxR2Oa0OvdBFhskDMe1juC+PEpPGsMMYKwHsJyOXyJFAZmjS5vDDnMWGY5HN4iNy0wd/RyLN60zXI4vBNv6jq2FH/bhxgQmD0WxWEAuECAwwBQNsBhACgb4DAAlA1wGADKBjgMAGUDHAaAsgEO5yK6MKL7u3vy8Zz3yaMtN3vZQK5ubBFE/0+KFoqxFk72wCgcpnu+efIirBbe/x+Ovnf3/gefPiiH/EcLH5fDg2pET4p+Cs2+2u+v1cKR1eiJy/UiBqepxaHpvtPa///h59/R/DtPX77Z1WQOp/309t2zl29y8niMj/6VduGw/CIscbn1AVnCaXv3ZWm7WVQ22RnAaHxrZbDTsvYhOzoansOPnr/a8cx4FZ5yxr5++86q+II43LLujKV7MhOPu6DdOLBZVDbZGUA/WLWoOyz+dJYXGrZhmctY42FzzydfPg7/37j38M7XT6TqBHx5vOyUKkucMDetsn220PS6K4ebVeR5CwCzQBjHl7UbySOsaiWZweAGxAxOHTdpQXtio0nWYjVipBO3Dhmh9xQcrjzwx198r89RO6Xas8lNywVwMmhlMkEedl7ypQzElrXHUxycZ9V+YZAcdtIVa6PyjKwlh42do3O4GgZ/9u0z79oMtY2DyqM4mVVIz+iPLNpyOF5XPraXnU22SEgOy0wsrGMXLiYnWVf60GT5tOicVjUdXYGOisUsl6c2n2Bxcp04E35q7vXKkNWWw/G6dmq/4wS3lL1cDzMtVn1KblKqlOuWq62vJs8mWyJ0LB0OJTlstmEXDvO9w3N4Hx7Tl0nh/3BaNWtN3zb5ClbGZXCtA4d9KxyPw3GBxOWeauB+0JzJtJMuMV4SSuZkzznWdpZssgXiIjicg0fPX/3xwY/WEa4gtx3aRsqqtJnRcDtuhP1jaWOyKBMmXZsHzkmst6J1ZmXAOsncnCebbHHow+HCYumu4PSg1Dh5HZeUIvuOmGcSM17HoajTVWRoFq+rFcywWQTYfA7FYHpCtn03oUOq32PUcTOdJ8gN3C8GrTgs32MMMaelH8TcONwMf0ncWm9HYml2aUUos4mdwSmv1NVLDSG9uvLRjIq9z6Q2y84mWxiyOayMarh3S0LM/Dg8GMqYiuFEbHoGY2LP648EWLCRMx7WO4J4UHhADDEesR7pcjlcBoWBC0L/b2VMX74cDm+RmxaYO3o5Fm/aZjkc3ok3yR1bir+NRkQJzB6L4jAAXCDAYQAoG+AwAJSNwTiMgoJyxgIOo6CUXXpxGACAmQMcBoCyAQ4DQNkAhwGgbIDDAFA2wGEAKBvgMACUDXAYAMoGOAwAZQMcBoCy8f/1GRYFxA1nvAAAAABJRU5ErkJggg==;points=[[0,0,0,0,0],[0,0.05,0,0,0],[0,0.1,0,0,0],[0,0.14,0,0,0],[0,0.19,0,0,0],[0,0.24,0,0,0],[0,0.25,0,0,0],[0,0.29,0,0,0],[0,0.33,0,0,0],[0,0.38,0,0,0],[0,0.43,0,0,0],[0,0.48,0,0,0],[0,0.5,0,0,0],[0,0.52,0,0,0],[0,0.57,0,0,0],[0,0.62,0,0,0],[0,0.67,0,0,0],[0,0.71,0,0,0],[0,0.75,0,0,0],[0,0.76,0,0,0],[0,0.81,0,0,0],[0,0.86,0,0,0],[0,0.9,0,0,0],[0,0.95,0,0,0],[0,1,0,0,0],[0.25,0,0,0,0],[0.25,1,0,0,0],[0.5,0,0,0,0],[0.5,1,0,0,0],[0.75,0,0,0,0],[0.75,1,0,0,0],[1,0,0,0,0],[1,0.25,0,0,0],[1,0.5,0,0,0],[1,0.75,0,0,0],[1,1,0,0,0]];" vertex="1" parent="1">
          <mxGeometry x="50" y="160" width="321" height="198" as="geometry" />
        </mxCell>
        <mxCell id="B8WmRNl6atAswD7czt82-2" value="" style="shape=image;verticalLabelPosition=bottom;labelBackgroundColor=default;verticalAlign=top;aspect=fixed;imageAspect=0;image=data:image/png,iVBORw0KGgoAAAANSUhEUgAAAYIAAAE5CAIAAAASlbBoAAAiFklEQVR4nO2dz6slx3XHn2NvjL0xQvvZZPWWiTcJhtmaJKvkEuyNs8gqWuhP8MPbQCTHwpJJYkJsCFwCxkvvDAHLOLE0wzyLBOwIB2MZySBNjMVoPDMv996+t7rOqXOqq/t2d/W97/OhmLmvf1RXV1d9+1R19zkXNwAAVbmoXQAAuO0gQwBQGWQIACqDDAFAZZAhAKgMMgQAlUGGAKAyyBAAVAYZAoDKdMjQxUtvkkgk0pEJGSKRSJXTCDJ0c3WXRCKRBiRkiEQiVU7IEIlEqpyQIRKJVDkhQyQSqXJChkgkUuWEDJFIpMoJGSpNn3zpR90vPlzd/Z+v/PkYh/vs1fMXF5eXg3NYX15cPH/nunalLTbF9eP9nu6IJJWQoaJUokGj1sORMrTbnUbvp0gURF1NJhZckVxChnpU0yAZulxdXKxWfY94rDU0TRp2Lks8qCc348lQlbo61YQMlVbTX7/+nkrpQmToVA6KDC0qIUOl1WTK0Bf+/VcZGbq++6mLiMu7n80dZfV8tOkdLUMv3LkMa/0RRFiSrNr2CrW7l62ZnHPZyeVh/7UsxrrZJWQbneDl3cuSE+xXgfY55krozg3FhYkKaZ2Xkb9ZbH1F4kMIwdrfgaJM2mKfa0KGSqtpWmto10XDZutL2QG2az919UKzNpplEMv3LbvJRDT6XeZtH37hztUqm62b9Llc333e3F2X/9Aze59gzwpMzzFXQu93rGK7Kg3ZWudl558WO70i7VpxlL2uHf7caevi7OKREzLUo5ommxvabiNv9fGgbPtb5LBttU2n3a4KO+66+v7OqadgjXacyTZXTvdctl0rOrq4hw8+wcIKLBvDqhK6MiSsD12rGdskyj8rQ2ltxEfR94O4AOeakKHSaipZOFCGIivmkKJ+Ja13ZcZv22gkN+K+3Sw3Mr/bma2TjHNZi1yMTn7kCQ6twB4l7HhgH1lq5syRmX9OhszStkfRkooMIUNtNZkL3/vKn3RtNo4MuTmEtdKWKZShnnOo6lyauZhDD3FsjWNP8CgZKirhETLk5o8M9UrIUFH6vUmtIcNKj2cEDBs+Ttv23cxoJpOp3hCgJFuvnO25yJkpZ0h4/AkOq8AeJcwPynIi5ed/7KAMGUKGMjXV/93Fot6+a/3SlokmJtX87vZ2Gs+D7DrD5fNeo092Xz3fDugy2XaeSzzPuh9YeTJ0zAkWVaB9jmUlNKaoxdy5nFnXMmTnnxY7f0WiP5EhZGiKdHhQne9L8RTDamW2xTD/oKYndpaF8+RelUH0sY5su8+l3X2zb2ZQduQJllWgeY4lJUx/r6PCuE+7svmnxc5dEfFkABlChkgzpWW+n0mqk5AhUo00ZIKcdLYJGSLNkTYji2hIZYwiSbc5IUNzpuhrg14zMmdRSPF+zcDh2ElUIKl3QoZIJFLlhAyRSKTKCRkikUiV02gyRCKRSMekMawhAIBBIEMAUBlkCAAqgwwBQGWQIQCoDDIEAJVBhgCgMkuSoeur3VdHl1fX1tp18znRaj3CkQBgQUwiQ/GSN9/9MLyetPkd1n785XuffuW+2BEZApiebU9yOlktxpehze8vfe/nYcnmx/uPntwc9Chs9runzz549KSHGYUMAYzA7m4/XIZ2u8teuF3k9Eu1ylPA8WXo7YcfNQvVZu9L0Xn89Fm/oRwyBDAr2y6n+ttWVmId2Y9grH5pr9IZNEw1N2Qu+fLr74Tfz7364KU33rXK3RYynMj2VJAhgFlJZUgsCYqSbpdZZS2aRYYaO+jF7/8i3UYslDK0NjxcIUMAxxKNjPYjLHG/vwkrIi91oU9aQypLWDKrjDHc5DLUTAl956cf3Pmnn3R8VhvLkLboMsYfAPRAy1A7ANnd+tsepjXEk5ueMmQsnFyG1AOyeHlOhva2UKS9DMoAxkDLUNTJ5Pyzkgt7WifdrntVYlWNL0ObcVb8hD61fdIfe5AhgOlJB2VhVacMmd1viAzJpfO9vthPhg6DsIMOMSgDGAdkqHhQpufImKIGGIdjZOhkBmX5zZQplH2LWszfH/5AhgCOopcMxXIx1hR1alYtyRoCgOkplqH2rZnRH9irbOaTIfOB/WZh544AsAwyglOMNcU0nwwBwKnjzg8VY1pUyBAAlGN82lrOfJ+2AgD0AhkCgMogQwBQGWQIACozmgyRSCTSMWkEGcpvAwDggQwBQGWQIQCoDDIEAJVBhgCgMsgQAFQGGQKAyiBDp8vxXzsDLIKFy9BRn/PeTBOuO5vn0AJvMtWhWATpAQuPNElp4dQYw1HQhJy3DB0ZrntAnoMLnLjflD7x9AE9V91atCYqLZwY48lQ3GbE3VK3smhlWDWro49Pfu3+Zslzrz2IN/jYy/fCBp959cFmyWazfM4n2E+OKXDrECr1RS6vXbjCySVVAe8mLC2cEmPJUDwRIByY7Rqe/FNE1Yn/mMPtWaNB8XcimT+7jn1y/WSEAqcGjJShaL0QncZA6mX7nVz1wkBGkqFcNh0uroVFNL0TWCU3NzKCa/chY0NvdaX7STwYiUPeptZCiLooVlmWopNtroA6XoFf4AJCBtv9TLM1sn7W2pNvdHgvasKopYWJyDRj2UBldOemSSSmiNFHrFj1N70yd1zi69KmdzdxbrPEsE9/b/698823NqlbhuSYQgdqTU4mMgrsCLhijbIbr6+u1tlsHdI83QL3wI1Fly9Ie7R9W9J5TFNamAC/GV9frcz2aVxBp5E3W4r92mFSaeY5WyjeNR14ySVzxLBPx1ymNfTDd367ST/61YdRTun9INbVpKO25ybOUs+hOYZinIuTrU2UZ77AvQjFcCefk7VuBM34TjhNaWEK3GYsiDpxMhOY3cmNVd8jc7tjqPmAzoY2Q7hEc1DWpE989d5NZm7IqBtxRzC7Z7vSkuKcoRgdwcvWJJtnyWHMSxmrYXKVkttH8kBfEu09qLRQB68Z3+grnt5lw/5F8Z1TWejO3DHYdZBTa099NjMEjw6/v/uzh0qGrn/9aPPnk2ftkt88fqpOKC9DbpcJa1Pzr0CGevXEaTq2uMbJbdF4GCqvau4vZOhksJtxoxLRTWpMGSrO3JAhZyKgY26oagz7AuxJOrda0p2bSTg1mnWHJN5By0uZL3Av9gUPLwztM3LyG2INjVlamAqjGcvr5sw5WJsm2YY/20x6ZG4aaGbr0Vsae049KDsG4+WD6Ewb7W3Pe/O3npy7vJSCnby+ICzReLTnZmsW0pzrO2rSVzwu68xsiDU0ZmlhMtJmHHd3aX84kzBGI8/KUGnmMpPchHXa8fQk09RT1EciHiivrRcQrHt+u6v7yNPIvSxbq4Sqn/sFLkXNCrQFPGQv8xxkDY1XWpgQoxm37XOzPDduajNQjTwzN9Qj8/gOZ0+qKsMq7Wo35izD4mToVuOMtW8SyyWxauWmvQaZAKVkLaBCrJluZAgASul6m6Ub8y6JDAFAOUcN5L0pdGTIw5p+YbADMAHIEABUBhkCgMogQwBQGWQIACqDDAFAZZAhAKgMMgQAlTklGer9Lfz0ZIs07EWvjs/FzM902jdTu5xH2o7xst6syooAi2aMrzAm5IRkqNs96+zkizRYhix/STpj5Udgt5EhG+rw0o9Il7pkHNMO8FkLFRlPhrQvEPfdXu0H9LBstreoxwsQNIDl6P7RMuS9yC01YP+XlkSjHtarzm9j1ytk6BwZq1fE1nRyw3Tun6Jl2h+ljS9DowYIGsC5yNB6pW4xbXaJp8a9e7S8gbNXmCabVakMMSg7C0bqFblsIuWx/PMIi2j6L+xNX9RhVf6Q+zNxXJWYvuZis091G+0SPsmk+a3jq3S6jU4LbJVoaPidnQyFMED7ayZNHeW3OnLyGrmQid2nbX9HRWu8PHarC9bQnNhuxrQTKnGB7AZsDYdap47GPaQ486wPGdkSM05gjbYzoS/qm0h3CgME7etPKULa4w6bxk6WrmwHT10ypK5IUl95JUqLVOQ8MYe61G2TsuQhDomQsV3iQhU0KKiCaqrCDzsBguYLEKQ6cji71B1cZrzTV4ay3im73KtEuTkOOQfJ0Gpl3LWCIO3MrMP4qh1etd6svaNG7m3VUZRodYzG1OY9TxA8kkgI5nVUDhJTu8bbyZa4fpnnHqlmJqLV8ZKb4EyDsouSAEGe38m0o+c6eE8Z0p67c7aEfTC3SNlgIHtMF56Jea22OqjlztGweli/+yPKQ84oCSG7alRpvdqPXtPZbwZf86JcAXvDfddP65DIHMWZO23hWg8JPRnKPT6ZcFDWO0DQMmSoV6cbJEOdWSbapKar9dTP3odwpDY7n+oruVd8d9tVUoEMMXabl9Bkkkld0630GDJUnLkhQ47T4o65oVlk6BjSAYWjGoZexXv4up+VoVy2foHdImWGR/ks1Xx7UiJDhtoDtlPbRsD7KIMw+5ix/nhUNjvtXLKYZYxnewgQZK4eWYb0NK95OeTk9X58kmyV5JHO1BljWNkPs30tmWlKxlPHW0PpGC5rDe3Noe3Ej3jEJg3v/QPJzkFZeTFhHHZNigBBKfPKkLxLu0+xbmTHSh4WXGjJ2m+WtYbU1r0f2MsSDR6UlWBZQ9ocimRJ18/e8B8sQ6jQZKjb2RZhGefGTW0Gqplkxgg9Mo+vum0pK8PK6J3mVPcSZeh2t+6CDm5YQ+EumBnLtTsEfcqpt97Ja29we8haQIVYdzpkCABK6XqDpRvzNosMAUA5w6Ya9ngdHBkqwZqvWWI5AU6SZckQANxCkCEAqAwyBACVQYYAoDLIEABUBhkCgMogQwBQmVOSoaW+VaTo+1HYfp/YaZB/lvY3X94HIL6HGD6OP0PG+NSiDickQ90uWZdB4rcsLbMWgtS5h/NVoHZD3ToZQYZgPBnSDj/cl3ajlSWrZn2L+nYHCEocAKVvX0sh2P+lZdY8kbwMSRdWcmvpwBoZOkPGavrxh2PJTdW5x6rW666yP0obX4ZufYAgqQlRlUt/rKGMzR/5oVzjkEMtCS0krGn9ZWm7KvakhQydKSM1/Vw2kbzoj8uUB1tnlZ39TL6ow6r8Ifcn6bgqMX3NxWaf6ntBDPJOYI8JEOScxCQRfsw9mzpaiamlEmtIKhzMhe1LLO69yWWxW6k15mk9NxrXtjjzrKcZ2VodT6kdTmCN2+CEvqhvIt051wBBzknYztkseWjd2GddriYyJB2RixluZX8xKFsUqj1GPfZ8ogBlVjmHmMoaUqOwsCpscB4BgpwCTBXhp3uKWmogMrQ8RJNy27HygpjaNd5OtsT1y9xu8fEdMz1YfLzMqrCvXD/ToOzirAIE5Ydt6aRestVBCPpF+In3lAeKlU+fEDK0MNQcim05R+3ObKXm9VNNP+373ZlnHq5e+B1JnVhmlVlQAgQVXuA+WGNrNV1teHFtb0uN5WtE+NF79ntgjwwthdDMkpnbokA9Q2SoOHOjcewlSB9x+NzQLDJ0DOl4xFENQ6/iPfxbQlaGctn2Ogk1YZ5kachQOL4I3JJE+Gkfq+3+tWQomeluWvsaGVoM7Vxy3ArUNXSVwm2lbtPvkblpoJmtRW+ZsfKMTKcelB2DnjCTdRBXmZy83g9vkq2SPNJJPGMMK+eSe3fYpI7TMVzWGtqbQ0mEnyin7CONtX6Or4+JDFVn1/LOOQpQZpXVAJcnQycVIMg7iQIsa0ibQ5EsHUwgdaC0iQRLyZjsR4aWwlo+69oirOfcuKnNQDWlzECgR+Zxe7RnS5VhZXTB7CpjFnyJMnTkoKg23kRNhGENhTtcZixnZZMTuPYAOS6vhp8rnCFZC+h4rLsgMgQAgiGvqRRj3qWRIQBQjPPMOMXr4MgQAFRmWTIEALcQZAgAKoMMAUBlkCEAqAwyBACVQYYAoDLIUBX4ngKgBRkajf3roamjOeNTi1FkKJNJcljz28dy1ivvAzW/TJ4zSbsAQ2sk47LSPuLsJZyVI9+8q/Xi3iQyFC95890Pg3ehze+w9uMv3/v0K/eXrl9Rd+68Osphh/4KtcC5VIyzRZxzXoaEm4DwtWzGO4p7podj+j3eOFZvhCuBfBH7dBTToeY0JVwARxZxjN2jb2bTCzbfW9Sb31/63s9jx6/vP3pyc9CjsNnvnj774NGT5NgTf1bXi8RZQc7IyXfPXjIUurv5+bzpWMjYbv+VbPufVWjDY4j89tt5q984tM694yr2q8HY4Uq/vhKVdNISVqJWfzGOGw8D/BZlf682vgy9/fCjG+kYv+F9KTqPnz6zDrwcGdIdULvKy/syU4TtXYsiGicER5qmw7s8rR+0RIbEnSjnBqDdMHZdVCajxdevrx8CtbzUJU6ayRwlnI/lyFCuJLrpzfaFvbnky6+/E34/9+qDl954N95AdbK9X5TUJ1Ps7rbQ38kAOzPvyHKwDJnbWnumF6tPh0pl6Orqckt0TyryZtVufZXVwNjgCLNfExkQR8nQLCWchbS/3Ihrt68m4W1rt2N3t8rubh43L9ryiEbjm0OGGjvoxe//It0mWZj6ftOOztrJ1gs9eBCDILWurxKlxqMyOtN2G03IdHm9lH9bHcmaXkqHQd5ZJTJ0sfeF1rZEb9ektspv+VED7bCdSiaWjYzCrpaXOx8p+JOXcE50M9E6YoahyXerzt2943qNJGlR6caTy1AzJfSdn37g7SsXGA7k5CAzue3Gm+6XmNOSPVtLestQE3BpsdqFnVPUiQwlpSuwtvvIkHw+l33QZbi4zBwmWrWdwGlCH0XDwMPcdvSnQ17ufG9wPayhSUtYhS4Zkpcn7iBut+rePT2u38HSFnVjtNzJZSg8IGuIZ4jUpPWhgKJao/PTkzPGuTWLCp0S5odttgy5U3BRW7Yas6p31Z4LZKj85hwZZlqG0gVGdehybl0mH15EyJkE67h7y1PwKyY+89JOrgzf8umR67lKOCNdMqSbkJ6C9LtVbnezeRa1KLvUE8jQZpwVP6EPv8NmzXO0+BF+roChllIFz8rQsc0lOzekb7HRRO4uXFhy8HVw9Lrd0mg7/a0h3Rv13qsQAS0q7e7nyn7Kkea2Xu1LG6mva+Q1ftnlgyldXfqmeR3HmDV0LmOFuT3CZ84SzsVAGSroVkfKkN2inFJXen3x7Ycfff3+e0UFPNSTah/poCyqQUOj+mM0SNsYilY00xS6kYfW2/6ZzBD2laG2VvyN9pMmyd3dstUyB9OWX3Y0afZnaY6ZNXdjNWWXvjIUbzJPCediqAxlutVQGUqG8tmWOc+gbCiWghyMDGNeUlSLrGM1Mzmg+cRlERfBmWCWN4CmzSbXwxhFmwPrTOeSo3Zvw0OJxf08TOfqusxUTzqgjGvdkSGRpxoHyTlQQwqsIoiL2XNQJip4mhLWwpptLtIRv1sVy5A/69x7jm1pMtT2FG36WLaPF0roRhnQQ02jazP/QzsNffow0Nr+CNfHM3HMEVvhQs/STeeRRTMJQ7TYIPMewCZV5s+EO5J6CNB4LRfK7OJ6utBjR/tQzqX2p0fjfZXijF/CWsj+0kOG/G5VqmJxQ9FzaJkWZVyw5cmQgTHZM8q4axjNjIkgtd1T8VMnETSsTCabzbt728X+wXxmel1kWdCrUhmKyq73lz213dAYBuom7lBWwg7caYyZSrhIRplDDfR8UiCXnYIMeX2o9vQgwAnTaUVOk59pXJ+ADLljFmQIYCjF1ks53eaV120XLUPuewfIEMBQMt2qFouWIQC4DSBDAFAZZAgAKoMMAUBlkCEAqAwyBACVmVaGfvv46Ws/+OUXv/3W5155c5M2PzZ/bhYOLCwAnCMTytB//O///ek/PviDv/tPlTYLN6uGF3lJ8PoSLIZxP86wmajBTyVDG6H5w5d+HKTn89+4/2f/cD/8uVl1Fkokv3UHqMkMMjRVg59EhjbDLmUH/f7f3t8sVzbR7KOz499fn+ANeIBxKJShXm14pgY/iQy99oNfqoFYKkObtNnsyNL3BBmCMwYZkll84VtvlcjQF7/9lpVf5LYh8nbYehcy3ZoIQ9FwE6QcNdiOPYv8aIht46Fyc8XazVqHtJY/iOLjArjELk6aEE7aPdzwXjBng59Ehj73ypslMrTZzKzWuHau1mGx6+1SDVmvr1bmckPa/UwcMj43pUugUOmtR1jPdx0TTDCItE1Ff4/UC2Zq8JPL0B///RsbDfrw8TZ+dJcMuVal6UpVbOg5O8l5LS7OxMnuJr0q2mWk9K8VXbGexwVQ2L7t7BHU8F4wU4OfRIY2o62NyvzRV3/cGEEbNj8+/437HYOyfDUqf8gXBvrOYC22jVZra4uuq6KcZCo3o7EH1n7HBZAYncVz03pML5ipwU81Rf03//bf7/3m8eb3X/zzdfrqkD1F3VOGfPfpXjUaF6Bn5x/tqiA6cBQdMjRWL5ipwU/1wP6v/vW//vJffuIJkPPA3n03Klnhv0Ul16ThBPx6K2GMq8I7jzACaSuKRkWj9YKZGvxMry+q5L2+mMZ+sWrV2jKErYlHqDqQhT22MzJx0TkMuioDjgugUY9zxBT1aL1gpga/vI85xDPIyKg0w2EE1PmHhUZVic17xxGSOQy7KkOOC5Ag+4owekbrBbM0+Dk+bf3Ct/i0FQBccPQBAJVBhgCgMshQinzfgukbgIlBhgCgMsgQAFQGGQKAyiBDAFAZZAgAKoMMAUBlCBAEAJVZ3jdlkyA+t/G8Fx3/bhDfzkM9CBC09ABB8RUy3FyOVLG4c4WKECBo6QGC/Ct0lAPWmeIWABRAZI6lBwgqd+zYC2QIlgMyNFKAoOEhR9LKEr5Yrsy5Ifnx2OVlYnBmNIp4QVAfv5ETIGh4gKCeIUd0nStXdF7sFCEumVAD3beCLheZxAuC6cg2cgIEDQ4QVB5yxDBTIpPU8RnbKUNqoqjbIO26SMQLgqnoaOTJtgQIKgwQdKSv/7B1V+wUX4bi+ikRg9HiFqQw5QQ5CBCkV48VIGgBMtQeo8gkGe0iITrQDwIEdWYxNEBQuZPtvoMyYTDmZOhwkLKB0RgXiXceYQjZRp7a+AQIKg8QVO7rPw0llEzXqQnrQhnaLblcrS5LLBRrTrt/3ALiBcEAco087g4ECOr7MUf5iR1Wu88AxaPMdfGgrN21TAkOh5k0fAqASaaREyCo5TQDBDFbAzArOPpI4Hk5wLwgQ5rut4UAYFSQoZb98DU3y8T0DcD4IEMAUBlkCAAqgwwBQGWQIQCoDDIEAJVBhgCgMsgQAFRmUTKE40GADs7y9VpkCOCUGE+GzG8n9cfwh0Pa7+0a/q6dHZvVnsuPSWTok1+7v1ny3GsP4g0+9vK9sMFnXn2wWbLZLJ8zACjGkiHz08mDrDgfzks7IXHilXgmMgpqf7E5vgw1GhRS2MD8k0klgF6MJENWNjuJ2Lraatdoi0k5M/M8ouVKaa0aX4aU3DQ/wqr8IaXN1pp0iT/tC8sU3FeZG6IEYBZsx4g6hIVon80Ga/1VozEcanqx08iLM9/69lM2SeR3VHotssN4pGZNpC9G9vJAqmdOIkPq9+bfO998a5P6yJDU1ivTEFRWovo01bEKAabG8AC2b4le3B7lIDQsij25XrWOFeV+bQcozTy1SGxP7qnWCGftqQS2zh+FVLp6tWcqa0iNwsKqsMEP3/ntJv3oVx+adeG4Hsu7oNYz3Lgvg0qI7uu2Q2k+uJ063amkkXdlnviBjX3Gmo5K9WqRrXA1K6UyffSUGEszDcqa9Imv3rvJzg0ZtqtXW8Y+1jgWGYIaZCJNSccxkVJ0NvWwpd/IizJXw6KM/3xbhsxB42odSpY+8TZKKU5uwkHZd3/2UMnQ9a8fbf588qxd8hvpENb21n2RNZGQIVggofEl0QfNuD1jyFBx5kKGnChiTU6ZuSHzjJ3Z6woydAz2ObbGX8GgDBmCZdBOkDhBMXRcMdGy3e7uylCPzHN+jmWvsYZvvgq5U0pqwQyDsmOILZuVsPzEUM2JC4QMwZLYtdtLPfyx4/Y4kzBi33j6V24WZKg088zzdN1rkveGIlHNzv747xSlj8qWKkOZVzfduEDIECwK9axrixe3JzMOkPM8ubmhHpn7T9TTXuO/Kt2Wz8jM3c2wqJYnQ+gGwOTU62rGa0PLkiFC8wDMRK3OZtphS5IhfxIeAMamwqTFrJ+2DiMZeQLArWBBMgQAtxNkCAAqgwwBQGWQIQCoDDIEAJVBhgCgMsgQAFQGGQKAPbXeIJ5EhuIlb777YfAutPkd1n785XuffuU++gWwGI6M0KWd7qQe2OZ7i3rz+0vf+3ns+PX9R09uDnoUNvvd02cfPHqCDAGcIMaXsYnjW1PP5goQ9PbDj26kY/yG96XoPH76DA0COE1sn/oZ/4q5XaebGzKXfPn1d8Lv51598NIb78YbJPEiCa0BMCvaw6AViUiNt1q/r9rtmdd1ZwkQFBaG340d9OL3f5FuoxamtZA/NACMSBqTwgm3ZcVK1M7YUpdtzs4zyFAzJfSdn37g7SsX7OsBEQKYHy1DbiQiQ3ayzq0Tv/rz+KKOp6ibB2QN8QyRmrQWpcbxEMDsZIYjnTKUsRr0A7IZInNsxlnxE/rwO2zWPEeLH+ELkCGASkwkQ1aotgUECHr74Udfv/+etSYKpI0QAczLMTKU6a/GTNJpBAhiihpgdnrJUMa+iWIHOTFcFxsgSIdTMaa2AGBCimWoDQ5kP7DPRBVafoAgADhNiiMOLT5AEACcKoXzuYsPEAQAJ0z3fO4JBAgCgNsJMgQAlUGGAKAyyBAAVAYZAoDKIEMAUBlkCAAqgwwBQGWQIQDYQ4AgAKgLAYIA4GQgQBAAVOZ8AwSlBluzJH90ABgLAgQVOM4GgCkhQNCNHjeiQgDzQoCgQ4mjWsApPsCcECAonM6uvKgQwOwQIKiBAEEA1SBA0IFtEVerrLgCwBQQICjQRB5BhQDmhgBBAQIlApwcZxYgiGkhgBPkrAIE8bYQwGlyFgGC1GubAHBLWJAMAcDtBBkCgMogQwBQGWQIACqDDAFAZZAhAKgMMgQAlVmWDI0Un6T0c5Ba4VAAlgkBgm6Ojk8i80GGAPoxXoCg8OXrhXgl+VYFCBpdhvjCBCCmI0CQ+HBsp0iHP29RgCBkCGBSugIEpVsLi2jBAYJ0cSO7rlsCYhtwdaVlKHZ+EumOliFrMzscip8nwOkyWoAgN9ubxQcIEsWVAnqV7ecyeMlekWxHcWL0m4i0vZkh4LmNAU6VsQIECZL+sfAAQVEt9PB9lg6t4p0T6Y0Gp6rSvc26HYDjIwnOgvEDBDVqptYtPEBQKsbdvdsQrGiRsiClfalUz9tMV3rHxgCnyriROVzXPQsPEORO1mTEqECGumfOOowvQ4YQHTg/xpOhfde1u8nCAwTZj67UsLR7p3iH3NMwbyrK3FB5A2cMBufHWAGCurvskgMExebJSkwQ53q9eC8hmaLWsWs3f8djLflEzNzMs9KcjQFOlZECBHW84LL0AEHxyUWP4LstD/G8fm3WoJGZqktvs/gA8vFYeQEBToBxAgTZk6di9fIDBAHAyXFmAYIA4AQ5qwBBAHCanEWAoC7EN7tMygCcDSckQwBwniBDAFAZZAgAKjOaDJFIJNIxCRkikUiV01EyBAAwNcgQAFQGGQKAyiBDAFAZZAgAKoMMAUBlkCEAqAwyBACVQYYAoDLIEABU5v8BL1U6bqPjQfgAAAAASUVORK5CYII=;points=[[0,0,0,0,0],[0,0.02,0,0,0],[0,0.05,0,0,0],[0,0.07,0,0,0],[0,0.1,0,0,0],[0,0.12,0,0,0],[0,0.15,0,0,0],[0,0.17,0,0,0],[0,0.2,0,0,0],[0,0.22,0,0,0],[0,0.24,0,0,0],[0,0.25,0,0,0],[0,0.27,0,0,0],[0,0.29,0,0,0],[0,0.32,0,0,0],[0,0.34,0,0,0],[0,0.37,0,0,0],[0,0.39,0,0,0],[0,0.41,0,0,0],[0,0.44,0,0,0],[0,0.46,0,0,0],[0,0.49,0,0,0],[0,0.5,0,0,0],[0,0.51,0,0,0],[0,0.54,0,0,0],[0,0.56,0,0,0],[0,0.59,0,0,0],[0,0.61,0,0,0],[0,0.63,0,0,0],[0,0.66,0,0,0],[0,0.68,0,0,0],[0,0.71,0,0,0],[0,0.73,0,0,0],[0,0.75,0,0,0],[0,0.76,0,0,0],[0,0.78,0,0,0],[0,0.8,0,0,0],[0,0.83,0,0,0],[0,0.85,0,0,0],[0,0.88,0,0,0],[0,0.9,0,0,0],[0,0.93,0,0,0],[0,0.95,0,0,0],[0,0.98,0,0,0],[0,1,0,0,0],[0.25,0,0,0,0],[0.25,1,0,0,0],[0.5,0,0,0,0],[0.5,1,0,0,0],[0.75,0,0,0,0],[0.75,1,0,0,0],[1,0,0,0,0],[1,0.25,0,0,0],[1,0.5,0,0,0],[1,0.75,0,0,0],[1,1,0,0,0]];" vertex="1" parent="1">
          <mxGeometry x="430" y="140" width="386" height="313" as="geometry" />
        </mxCell>
      </root>
    </mxGraphModel>
  </diagram>
</mxfile>
